<?xml version="1.0" encoding="UTF-8"?>
<svg xmlns="http://www.w3.org/2000/svg" viewBox="0 0 48 47">
  <defs>
    <style>
      .cls-1 {
        isolation: isolate;
      }

      .cls-2 {
        fill: #ffa700;
      }

      .cls-3 {
        mix-blend-mode: multiply;
      }
    </style>
  </defs>
  <g class="cls-1">
    <g id="Layer_1" data-name="Layer 1">
      <g>
        <g class="cls-3">
          <path class="cls-2" d="M33.72,32.78l14.28.44-6.56-8.43h-3.21c-.82,2.92-2.33,5.68-4.51,8"/>
        </g>
        <path class="cls-2" d="M31.6,34.73c.76-.61,1.47-1.26,2.12-1.96l-13.73-.42c-4.01.15-8.03-1.56-10.68-4.97-4.37-5.61-3.35-13.71,2.26-18.08,5.61-4.37,13.71-3.35,18.08,2.26,2,2.58,2.87,5.68,2.68,8.69l-7.8.51c.39-1.51.1-3.18-.93-4.51-1.77-2.28-5.06-2.69-7.34-.91-2.28,1.77-2.69,5.05-.92,7.34.96,1.23,2.36,1.91,3.8,2h.05c.19,0,.38.02.57,0l13.33.05,5.11.02c1.62-5.74.57-12.16-3.37-17.23C28.25-.97,16.01-2.5,7.52,4.11-.97,10.71-2.5,22.94,4.11,31.43c2.97,3.81,7.06,6.21,11.45,7.12l3.27-1.37-1.82,2.81-.94,6.81,15.53-12.08v.02Z"/>
      </g>
    </g>
  </g>
</svg>